# xmcd
#
# Track frame offsets: 
#        150
#        21456
#        45889
#        64521
#        84906
#        106755
#        120794
#        136030
#        155863
#        171617
#        192641
#
# Disc length: 2881 seconds
#
# Revision: 0
# Processed by: cddbd v1.5.2PL0 Copyright (c) Steve Scherf et al.
# Submitted via: ExactAudioCopy v1.0b1
#
DISCID=880b3f0b
DTITLE=Alannah Myles - Black Velvet 
DYEAR=2007
DGENRE=Pop Female Singer-Songwriter
TTITLE0=Black Velvet
TTITLE1=Comment Ca Va
TTITLE2=Prime Of My Life
TTITLE3=Only Wings
TTITLE4=Leave It Alone
TTITLE5=Anywhere But Home
TTITLE6=Faces In The Crowd
TTITLE7=Give Me Love
TTITLE8=What Is Love
TTITLE9=I Love You
TTITLE10=Trouble
EXTD=
EXTT0=
EXTT1=
EXTT2=
EXTT3=
EXTT4=
EXTT5=
EXTT6=
EXTT7=
EXTT8=
EXTT9=
EXTT10=
PLAYORDER=
